<svg width="240" height="61" viewBox="0 0 240 61" fill="none" xmlns="http://www.w3.org/2000/svg"><g clip-path="url(#a)"><path d="M40.8 28.6551L14.7556 32.4639L27.7778 61L40.8 28.6551Z" fill="#9070AF"/><path d="M27.7778 0L14.7556 32.33L40.8 28.5212L27.7778 0Z" fill="#0058A3"/><path d="M55.5556 26.3788L27.7926 0L40.8148 28.5361L55.5704 26.3788H55.5556Z" fill="#38A1DB"/><path d="M0 26.3788V34.5022L14.7556 32.3449L27.7778 0L8.4 18.4041L0 26.3788Z" fill="#38A1DB"/><path d="M0 34.6212L27.7778 61.0149L14.7556 32.4788L0 34.6212Z" fill="#51318F"/><path d="M55.5555 34.6215V26.498L40.8 28.6554L27.7778 61.0002L47.1556 42.5961L55.5555 34.6215Z" fill="#51318F"/><path d="M24.9037 22.2129C24.9333 23.5668 25.037 24.9059 25.2148 26.2449C24.9926 26.5722 24.563 26.6466 24.237 26.4234C23.7482 24.162 21.6889 22.5849 19.3926 22.7188C16.5333 22.7188 13.4667 25.1737 13.4667 30.3215C13.4667 35.4693 16.4296 38.2366 19.5259 38.2366C21.9704 38.192 24.0889 36.5702 24.7852 34.2195C25.1111 34.0261 25.5259 34.1005 25.763 34.3981C25.6889 35.7966 25.3482 37.1802 24.7852 38.4598C23.0963 39.0251 21.3333 39.3376 19.5556 39.412C17.0963 39.5012 14.6667 38.8168 12.6222 37.4481C10.4889 35.8561 9.27408 33.3268 9.34815 30.6637C9.27408 28.0154 10.4148 25.4861 12.4593 23.8049C14.5037 22.2427 17.0222 21.4244 19.6 21.4988C21.3926 21.5732 23.1704 21.7963 24.9185 22.1832L24.9037 22.2129Z" fill="#fff"/><path d="M32.1778 28.8337C32.1778 29.6817 32.3408 29.7859 32.6519 29.7859C33.1852 29.7859 34.2815 28.7742 34.7111 28.2832C36.0148 26.8995 37.2445 25.4564 38.4 23.9388C38.563 23.7454 38.6815 23.5073 38.7408 23.2693C38.7408 23.1651 38.6371 22.9866 38.2963 22.9271L37.3926 22.7783C37.1704 22.57 37.1408 22.2129 37.3482 21.9898C37.3926 21.9451 37.437 21.9005 37.4963 21.8707C38.8148 21.9303 39.763 21.9451 40.6963 21.9451C41.6296 21.9451 42.7852 21.9154 43.8074 21.8707C44.1185 21.9749 44.1333 22.57 43.9408 22.7783C43.1852 22.8378 42.4296 22.9866 41.7185 23.2395C40.2222 24.0429 38.9333 25.1737 37.9259 26.5425L36.7408 27.8815C36.563 28.0303 36.4445 28.2534 36.4 28.4766C36.4 28.6105 36.5482 28.9229 37.3333 30.0834C38.6222 32.0176 40.1482 34.5022 41.8963 36.8381C42.2963 37.5225 43.0074 37.9837 43.8074 38.0581L44.637 38.192C44.7852 38.43 44.7852 38.9656 44.563 39.0995C43.2741 39.0549 42.0296 39.0251 40.8593 39.0251C39.5408 39.0251 38.2519 39.0549 36.8148 39.0995C36.4741 38.9954 36.4741 38.3556 36.7556 38.192L37.3926 38.0432C37.6741 37.9688 37.8371 37.8944 37.8371 37.7903C37.8222 37.5968 37.7482 37.4183 37.6296 37.2695C37.4667 37.0315 36.4 35.3503 36.1333 34.9634L34.7704 32.8656C33.8519 31.4373 33.4074 30.8273 32.8296 30.8273C32.2519 30.8273 32.2074 31.1844 32.2074 32.5829V35.3056C32.2074 37.7159 32.3704 37.9539 33.5259 38.1027L34.2519 38.2068C34.4593 38.4746 34.4593 38.8466 34.2519 39.1144C32.8889 39.0698 31.6 39.04 30.3556 39.04C29.2 39.04 27.8519 39.0698 26.4889 39.1144C26.2815 38.8466 26.2815 38.4746 26.4889 38.2068L27.2148 38.1027C28.3704 37.9539 28.5333 37.7159 28.5333 35.3056V25.6795C28.5333 23.2693 28.3852 23.0461 27.2148 22.8825L26.4889 22.7783C26.237 22.57 26.2074 22.1832 26.4148 21.9451C26.4296 21.9154 26.4593 21.9005 26.4889 21.8707C27.7778 21.9303 29.0667 21.9451 30.3556 21.9451C31.5852 21.9451 32.8741 21.9154 34.2519 21.8707C34.4889 22.1237 34.4889 22.5254 34.2519 22.7783L33.5259 22.8825C32.3704 23.0312 32.2074 23.2693 32.2074 25.6795V28.8337H32.1778Z" fill="#fff"/><path d="M78.8 17.2585C75.1556 17.6751 74.2519 17.7495 71.2296 17.8834C71.0519 16.9163 70.6815 15.9939 70.1778 15.1607C75.2148 15.2202 80.2519 14.6251 85.1407 13.3902C86.1333 13.1671 87.0963 12.7951 87.9852 12.3041L89.9259 14.9078C89.0667 15.1161 89.0519 15.1458 88.2667 15.3541C86.1778 16.0088 84.0296 16.5146 81.8667 16.8568V22.2873H89.2C90.2074 22.3022 91.2 22.2427 92.1926 22.1088V25.1439C91.2148 25.01 90.2074 24.9505 89.2148 24.9654H81.8519V33.3715C81.8222 34.4427 81.8815 35.499 82.0296 36.5702H78.6222C78.7704 35.499 78.8296 34.4129 78.8 33.3268V24.9654H71.8815C70.8889 24.9654 69.9111 25.01 68.9333 25.1439V22.1088C69.9111 22.2427 70.8889 22.3022 71.8815 22.2873H78.8V17.2734V17.2585Z" fill="#231815"/><path d="M124.237 50.749L125.733 51.2251C125.57 51.9541 125.17 52.6237 124.593 53.0998C123.17 54.0519 121.274 53.8734 120.059 52.6683C119.378 51.8798 119.022 50.8532 119.081 49.8117C119.022 48.7256 119.363 47.6693 120.074 46.8361C120.741 46.1219 121.689 45.7351 122.667 45.7798C123.511 45.75 124.326 46.0476 124.948 46.6129C125.333 46.9998 125.6 47.4907 125.733 48.0263L124.207 48.3983C124.059 47.6246 123.378 47.0741 122.593 47.1039C122.059 47.089 121.556 47.3122 121.215 47.7139C120.815 48.2941 120.622 48.9934 120.681 49.6927C120.622 50.4217 120.8 51.1656 121.2 51.7756C121.526 52.1773 122.03 52.4154 122.563 52.4005C122.948 52.4005 123.333 52.2666 123.63 52.0137C123.97 51.6715 124.193 51.24 124.267 50.7639L124.237 50.749Z" fill="#46277D"/><path d="M127.496 53.5759V45.8839H129.037V48.9042H132.059V45.8839H133.6V53.5759H132.059V50.2134H129.037V53.5759H127.496Z" fill="#46277D"/><path d="M135.585 53.5759V45.8839H137.126V53.5759H135.585Z" fill="#46277D"/><path d="M154.296 53.5759H152.607L151.941 51.8351H148.874L148.252 53.5759H146.607L149.585 45.8839H151.215L154.281 53.5759H154.296Z" fill="#46277D"/><path d="M158.104 53.5759V45.8839H159.644V49.291L162.77 45.8839H164.844L161.97 48.8744L165.007 53.5759H163.007L160.904 49.9605L159.644 51.24V53.561H158.104V53.5759Z" fill="#46277D"/><path d="M166.03 53.5759V45.8839H171.704V47.1932H167.57V48.8893H171.422V50.1837H167.57V52.2815H171.852V53.5759H166.044H166.03Z" fill="#46277D"/><path d="M173.541 53.5759V45.8839H175.081V53.5759H173.541Z" fill="#46277D"/><path d="M176.533 53.5759V52.1773L180.548 47.1932H176.978V45.8839H182.578V47.089L178.385 52.2815H182.741V53.5759H176.519H176.533Z" fill="#46277D"/><path d="M191.259 53.5759H189.585L188.919 51.8351H185.852L185.215 53.5759H183.57L186.548 45.8839H188.178L191.244 53.5759H191.259Z" fill="#46277D"/><path d="M192.474 53.5759V45.8839H194.015V53.5759H192.474Z" fill="#46277D"/></g><defs><clipPath id="a"><rect width="240" height="61" fill="#fff"/></clipPath></defs></svg>
